<svg xmlns="http://www.w3.org/2000/svg" xmlns:bx="https://boxy-svg.com" width="140" viewBox="0 0 448 88">
    <text x="112.1" y="58.1" style="fill:var(--color-title);font-family:var(--font-header);font-size:62.4px;white-space:pre;font-variation-settings:'opsz' 50,'wght' 500">volumetrics</text>
    <path stroke-linejoin="round" d="M9 27.7c12.5-5.4 25.5-8.8 50.8-5.7m0 0c3.8 17.5 1.5 41.3-1.5 56.1M59.8 22c5.7-5.4 16.4-10.7 16.4-10.7" style="fill:none;stroke-width:3px;stroke-linecap:round;stroke:var(--color-title)"></path>
    <path
        d="M26.5 59.9C16.6 48.8 11.3 34.5 9.4 27.7c7.2-7.3 25.4-19.8 47.7-19.8 8 0 13.4.8 16 1.5h1.5c1.2.4 1.6.4 1.9.8.4 0 1.2.7 1.6 3.8 1.1 6.1 3 20.5-2.7 36.7-4.2 12.2-12.5 22.8-17.1 27.4-7.6-1.9-21.9-7.6-31.8-18.2Z"
        style="fill:none;stroke-width:6px;stroke-linecap:round;stroke:var(--color-title)"></path>
</svg>
